<svg width="55" height="55" viewBox="0 0 55 55" fill="none" xmlns="http://www.w3.org/2000/svg">
<path d="M13.75 20.625C12.8104 20.625 12.0312 19.8458 12.0312 18.9063V14.3229C12.0312 13.3833 12.8104 12.6042 13.75 12.6042C14.6896 12.6042 15.4688 13.3833 15.4688 14.3229V18.9063C15.4688 19.8458 14.6896 20.625 13.75 20.625Z" fill="#F2F7A1"/>
<path d="M27.5 52.1354H20.625C8.18126 52.1354 2.86459 46.8187 2.86459 34.375V20.625C2.86459 8.18125 8.18126 2.86458 20.625 2.86458H34.375C46.8188 2.86458 52.1354 8.18125 52.1354 20.625V27.5C52.1354 28.4396 51.3563 29.2187 50.4167 29.2187C49.4771 29.2187 48.6979 28.4396 48.6979 27.5V20.625C48.6979 10.0604 44.9396 6.30208 34.375 6.30208H20.625C10.0604 6.30208 6.30209 10.0604 6.30209 20.625V34.375C6.30209 44.9396 10.0604 48.6979 20.625 48.6979H27.5C28.4396 48.6979 29.2188 49.4771 29.2188 50.4167C29.2188 51.3562 28.4396 52.1354 27.5 52.1354Z" fill="#F2F7A1"/>
<path d="M22.9167 20.625C21.9771 20.625 21.1979 19.8458 21.1979 18.9063V14.3229C21.1979 13.3833 21.9771 12.6042 22.9167 12.6042C23.8562 12.6042 24.6354 13.3833 24.6354 14.3229V18.9063C24.6354 19.8458 23.8562 20.625 22.9167 20.625Z" fill="#F2F7A1"/>
<path d="M13.75 42.9688C12.8104 42.9688 12.0312 42.1896 12.0312 41.25V36.6667C12.0312 35.7271 12.8104 34.9479 13.75 34.9479C14.6896 34.9479 15.4688 35.7271 15.4688 36.6667V41.25C15.4688 42.1896 14.6896 42.9688 13.75 42.9688Z" fill="#F2F7A1"/>
<path d="M22.9167 42.9688C21.9771 42.9688 21.1979 42.1896 21.1979 41.25V36.6667C21.1979 35.7271 21.9771 34.9479 22.9167 34.9479C23.8562 34.9479 24.6354 35.7271 24.6354 36.6667V41.25C24.6354 42.1896 23.8562 42.9688 22.9167 42.9688Z" fill="#F2F7A1"/>
<path d="M41.25 18.3333H32.0833C31.1438 18.3333 30.3646 17.5542 30.3646 16.6146C30.3646 15.675 31.1438 14.8958 32.0833 14.8958H41.25C42.1896 14.8958 42.9688 15.675 42.9688 16.6146C42.9688 17.5542 42.1896 18.3333 41.25 18.3333Z" fill="#F2F7A1"/>
<path d="M50.4167 29.2188H4.58334C3.64376 29.2188 2.86459 28.4396 2.86459 27.5C2.86459 26.5604 3.64376 25.7812 4.58334 25.7812H50.4167C51.3563 25.7812 52.1354 26.5604 52.1354 27.5C52.1354 28.4396 51.3563 29.2188 50.4167 29.2188Z" fill="#F2F7A1"/>
<path d="M49.408 46.5896C48.1247 48.8125 45.7185 50.3021 42.9685 50.3021C38.8664 50.3021 36.3455 46.1771 36.3455 46.1771M36.506 39.1646C37.7893 36.9187 40.1956 35.4292 42.9685 35.4292C47.9414 35.4292 50.4164 39.5542 50.4164 39.5542M50.4164 34.9479V39.5313H45.8331M40.9289 46.1542H36.3455V50.4167" stroke="#F2F7A1" stroke-width="1.5" stroke-linecap="round" stroke-linejoin="round"/>
</svg>
