<svg width="55" height="55" viewBox="0 0 55 55" fill="none" xmlns="http://www.w3.org/2000/svg">
<path d="M41.2496 18.1271C41.1809 18.1271 41.135 18.1271 41.0663 18.1271H40.9517C36.6204 17.9896 33.3892 14.6438 33.3892 10.5188C33.3892 6.30212 36.8267 2.88753 41.0204 2.88753C45.2142 2.88753 48.6517 6.32503 48.6517 10.5188C48.6288 14.6667 45.3975 18.0125 41.2725 18.15C41.2725 18.1271 41.2725 18.1271 41.2496 18.1271ZM41.0204 6.30212C38.7059 6.30212 36.8267 8.18129 36.8267 10.4959C36.8267 12.7646 38.5913 14.598 40.86 14.6896C40.8829 14.6667 41.0663 14.6667 41.2725 14.6896C43.4954 14.575 45.2142 12.7417 45.2371 10.4959C45.2371 8.18129 43.3579 6.30212 41.0204 6.30212Z" fill="#F2F7A1"/>
<path d="M41.2729 35.0167C40.3792 35.0167 39.4854 34.948 38.5917 34.7875C37.6521 34.6271 37.0333 33.7334 37.1937 32.7938C37.3542 31.8542 38.2479 31.2355 39.1875 31.3959C42.0062 31.8771 44.9854 31.3501 46.9792 30.0209C48.0562 29.3105 48.6292 28.4167 48.6292 27.523C48.6292 26.6292 48.0333 25.7584 46.9792 25.048C44.9854 23.7188 41.9604 23.1917 39.1187 23.6959C38.1792 23.8792 37.2854 23.2375 37.125 22.298C36.9646 21.3584 37.5833 20.4646 38.5229 20.3042C42.2583 19.6396 46.1312 20.35 48.8812 22.1834C50.8979 23.5355 52.0667 25.4605 52.0667 27.523C52.0667 29.5625 50.9208 31.5105 48.8812 32.8855C46.7958 34.2605 44.0917 35.0167 41.2729 35.0167Z" fill="#F2F7A1"/>
<path d="M13.6812 18.1271C13.6583 18.1271 13.6354 18.1271 13.6354 18.1271C9.51036 17.9896 6.27911 14.6437 6.2562 10.5187C6.2562 6.30207 9.6937 2.86458 13.8874 2.86458C18.0812 2.86458 21.5187 6.30208 21.5187 10.4958C21.5187 14.6437 18.2874 17.9896 14.1624 18.1271L13.6812 16.4083L13.8416 18.1271C13.7958 18.1271 13.727 18.1271 13.6812 18.1271ZM13.9104 14.6896C14.0479 14.6896 14.1625 14.6896 14.3 14.7125C16.3395 14.6208 18.127 12.7875 18.127 10.5187C18.127 8.20415 16.2479 6.32498 13.9333 6.32498C11.6187 6.32498 9.73953 8.20415 9.73953 10.5187C9.73953 12.7646 11.4812 14.575 13.7041 14.7125C13.727 14.6896 13.8187 14.6896 13.9104 14.6896Z" fill="#F2F7A1"/>
<path d="M13.6583 35.0167C10.8396 35.0167 8.13543 34.2605 6.05001 32.8855C4.03334 31.5334 2.86459 29.5855 2.86459 27.523C2.86459 25.4834 4.03334 23.5355 6.05001 22.1834C8.80001 20.35 12.6729 19.6396 16.4083 20.3042C17.3479 20.4646 17.9667 21.3584 17.8063 22.298C17.6458 23.2375 16.7521 23.8792 15.8125 23.6959C12.9708 23.1917 9.96876 23.7188 7.9521 25.048C6.87501 25.7584 6.30209 26.6292 6.30209 27.523C6.30209 28.4167 6.89793 29.3105 7.9521 30.0209C9.94585 31.3501 12.925 31.8771 15.7438 31.3959C16.6833 31.2355 17.5771 31.8771 17.7375 32.7938C17.8979 33.7334 17.2792 34.6271 16.3396 34.7875C15.4458 34.948 14.5521 35.0167 13.6583 35.0167Z" fill="#F2F7A1"/>
<path d="M27.4996 35.2458C27.4309 35.2458 27.385 35.2458 27.3163 35.2458H27.2017C22.8704 35.1083 19.6392 31.7625 19.6392 27.6375C19.6392 23.4208 23.0767 20.0062 27.2704 20.0062C31.4642 20.0062 34.9017 23.4437 34.9017 27.6375C34.8788 31.7854 31.6475 35.1312 27.5225 35.2687C27.5225 35.2458 27.5225 35.2458 27.4996 35.2458ZM27.2704 23.4208C24.9559 23.4208 23.0767 25.3 23.0767 27.6146C23.0767 29.8833 24.8413 31.7166 27.11 31.8083C27.1329 31.7854 27.3163 31.7854 27.5225 31.8083C29.7454 31.6937 31.4642 29.8604 31.4871 27.6146C31.4871 25.3229 29.6079 23.4208 27.2704 23.4208Z" fill="#F2F7A1"/>
<path d="M27.4995 52.1583C24.7495 52.1583 21.9995 51.4479 19.8682 50.0041C17.8516 48.652 16.6828 46.727 16.6828 44.6645C16.6828 42.625 17.8287 40.6541 19.8682 39.302C24.1537 36.4603 30.8683 36.4603 35.1308 39.302C37.1474 40.6541 38.3162 42.5791 38.3162 44.6416C38.3162 46.6812 37.1703 48.652 35.1308 50.0041C32.9995 51.425 30.2495 52.1583 27.4995 52.1583ZM21.7703 42.1895C20.6933 42.9 20.1203 43.7937 20.1203 44.6874C20.1203 45.5812 20.7162 46.452 21.7703 47.1624C24.8641 49.2479 30.112 49.2479 33.2058 47.1624C34.2828 46.452 34.8557 45.5583 34.8557 44.6645C34.8557 43.7708 34.2599 42.9 33.2058 42.1895C30.1349 40.1041 24.887 40.127 21.7703 42.1895Z" fill="#F2F7A1"/>
</svg>
