<svg width="55" height="55" viewBox="0 0 55 55" fill="none" xmlns="http://www.w3.org/2000/svg">
<path d="M4.58334 22.3437C3.64376 22.3437 2.86459 21.5646 2.86459 20.625V14.8958C2.86459 8.25 8.27293 2.86458 14.8958 2.86458H20.625C21.5646 2.86458 22.3438 3.64375 22.3438 4.58333C22.3438 5.52292 21.5646 6.30208 20.625 6.30208H14.8958C10.1521 6.30208 6.30209 10.1521 6.30209 14.8958V20.625C6.30209 21.5646 5.52293 22.3437 4.58334 22.3437Z" fill="#F2F7A1"/>
<path d="M50.4167 22.3437C49.4771 22.3437 48.6979 21.5646 48.6979 20.625V14.8958C48.6979 10.1521 44.8479 6.30208 40.1042 6.30208H34.375C33.4354 6.30208 32.6562 5.52292 32.6562 4.58333C32.6562 3.64375 33.4354 2.86458 34.375 2.86458H40.1042C46.7271 2.86458 52.1354 8.25 52.1354 14.8958V20.625C52.1354 21.5646 51.3563 22.3437 50.4167 22.3437Z" fill="#F2F7A1"/>
<path d="M40.1042 52.1354H36.6667C35.7271 52.1354 34.9479 51.3563 34.9479 50.4167C34.9479 49.4771 35.7271 48.6979 36.6667 48.6979H40.1042C44.8479 48.6979 48.6979 44.8479 48.6979 40.1042V36.6667C48.6979 35.7271 49.4771 34.9479 50.4167 34.9479C51.3562 34.9479 52.1354 35.7271 52.1354 36.6667V40.1042C52.1354 46.75 46.7271 52.1354 40.1042 52.1354Z" fill="#F2F7A1"/>
<path d="M20.625 52.1354H14.8958C8.27293 52.1354 2.86459 46.75 2.86459 40.1042V34.375C2.86459 33.4354 3.64376 32.6562 4.58334 32.6562C5.52293 32.6562 6.30209 33.4354 6.30209 34.375V40.1042C6.30209 44.8479 10.1521 48.6979 14.8958 48.6979H20.625C21.5646 48.6979 22.3438 49.4771 22.3438 50.4167C22.3438 51.3563 21.5646 52.1354 20.625 52.1354Z" fill="#F2F7A1"/>
<path d="M20.625 25.7813H16.0417C12.8104 25.7813 10.8854 23.8563 10.8854 20.625V16.0417C10.8854 12.8104 12.8104 10.8854 16.0417 10.8854H20.625C23.8562 10.8854 25.7812 12.8104 25.7812 16.0417V20.625C25.7812 23.8563 23.8562 25.7813 20.625 25.7813ZM16.0417 14.3229C14.6896 14.3229 14.3229 14.6896 14.3229 16.0417V20.625C14.3229 21.9771 14.6896 22.3438 16.0417 22.3438H20.625C21.9771 22.3438 22.3437 21.9771 22.3437 20.625V16.0417C22.3437 14.6896 21.9771 14.3229 20.625 14.3229H16.0417Z" fill="#F2F7A1"/>
<path d="M38.9583 25.7813H34.375C31.1437 25.7813 29.2188 23.8563 29.2188 20.625V16.0417C29.2188 12.8104 31.1437 10.8854 34.375 10.8854H38.9583C42.1896 10.8854 44.1146 12.8104 44.1146 16.0417V20.625C44.1146 23.8563 42.1896 25.7813 38.9583 25.7813ZM34.375 14.3229C33.0229 14.3229 32.6562 14.6896 32.6562 16.0417V20.625C32.6562 21.9771 33.0229 22.3438 34.375 22.3438H38.9583C40.3104 22.3438 40.6771 21.9771 40.6771 20.625V16.0417C40.6771 14.6896 40.3104 14.3229 38.9583 14.3229H34.375Z" fill="#F2F7A1"/>
<path d="M20.625 44.1146H16.0417C12.8104 44.1146 10.8854 42.1896 10.8854 38.9583V34.375C10.8854 31.1437 12.8104 29.2188 16.0417 29.2188H20.625C23.8562 29.2188 25.7812 31.1437 25.7812 34.375V38.9583C25.7812 42.1896 23.8562 44.1146 20.625 44.1146ZM16.0417 32.6562C14.6896 32.6562 14.3229 33.0229 14.3229 34.375V38.9583C14.3229 40.3104 14.6896 40.6771 16.0417 40.6771H20.625C21.9771 40.6771 22.3437 40.3104 22.3437 38.9583V34.375C22.3437 33.0229 21.9771 32.6562 20.625 32.6562H16.0417Z" fill="#F2F7A1"/>
<path d="M38.9583 44.1146H34.375C31.1437 44.1146 29.2188 42.1896 29.2188 38.9583V34.375C29.2188 31.1437 31.1437 29.2188 34.375 29.2188H38.9583C42.1896 29.2188 44.1146 31.1437 44.1146 34.375V38.9583C44.1146 42.1896 42.1896 44.1146 38.9583 44.1146ZM34.375 32.6562C33.0229 32.6562 32.6562 33.0229 32.6562 34.375V38.9583C32.6562 40.3104 33.0229 40.6771 34.375 40.6771H38.9583C40.3104 40.6771 40.6771 40.3104 40.6771 38.9583V34.375C40.6771 33.0229 40.3104 32.6562 38.9583 32.6562H34.375Z" fill="#F2F7A1"/>
</svg>
