<svg width="55" height="55" viewBox="0 0 55 55" fill="none" xmlns="http://www.w3.org/2000/svg">
<path d="M34.375 52.1354H20.625C8.18123 52.1354 2.86456 46.8187 2.86456 34.375V20.625C2.86456 8.18125 8.18123 2.86458 20.625 2.86458H34.375C46.8187 2.86458 52.1354 8.18125 52.1354 20.625V34.375C52.1354 46.8187 46.8187 52.1354 34.375 52.1354ZM20.625 6.30208C10.0604 6.30208 6.30206 10.0604 6.30206 20.625V34.375C6.30206 44.9396 10.0604 48.6979 20.625 48.6979H34.375C44.9396 48.6979 48.6979 44.9396 48.6979 34.375V20.625C48.6979 10.0604 44.9396 6.30208 34.375 6.30208H20.625Z" fill="#F2F7A1"/>
<path d="M35.7042 44.1146C34.7646 44.1146 33.9854 43.3354 33.9854 42.3958V33.4583C33.9854 32.5188 34.7646 31.7396 35.7042 31.7396C36.6437 31.7396 37.4229 32.5188 37.4229 33.4583V42.3958C37.4229 43.3354 36.6437 44.1146 35.7042 44.1146Z" fill="#F2F7A1"/>
<path d="M35.7042 18.7917C34.7646 18.7917 33.9854 18.0125 33.9854 17.0729V12.6042C33.9854 11.6646 34.7646 10.8854 35.7042 10.8854C36.6437 10.8854 37.4229 11.6646 37.4229 12.6042V17.0729C37.4229 18.0125 36.6437 18.7917 35.7042 18.7917Z" fill="#F2F7A1"/>
<path d="M35.7042 30.7083C31.4646 30.7083 28.0271 27.2708 28.0271 23.0313C28.0271 18.7917 31.4646 15.3542 35.7042 15.3542C39.9437 15.3542 43.3812 18.7917 43.3812 23.0313C43.3812 27.2708 39.9208 30.7083 35.7042 30.7083ZM35.7042 18.7917C33.3667 18.7917 31.4646 20.6938 31.4646 23.0313C31.4646 25.3688 33.3667 27.2708 35.7042 27.2708C38.0417 27.2708 39.9437 25.3688 39.9437 23.0313C39.9437 20.6938 38.0187 18.7917 35.7042 18.7917Z" fill="#F2F7A1"/>
<path d="M19.2958 44.1146C18.3563 44.1146 17.5771 43.3354 17.5771 42.3958V37.9271C17.5771 36.9875 18.3563 36.2083 19.2958 36.2083C20.2354 36.2083 21.0146 36.9875 21.0146 37.9271V42.3958C21.0146 43.3354 20.2583 44.1146 19.2958 44.1146Z" fill="#F2F7A1"/>
<path d="M19.2958 23.2604C18.3563 23.2604 17.5771 22.4813 17.5771 21.5417V12.6042C17.5771 11.6646 18.3563 10.8854 19.2958 10.8854C20.2354 10.8854 21.0146 11.6646 21.0146 12.6042V21.5417C21.0146 22.4813 20.2583 23.2604 19.2958 23.2604Z" fill="#F2F7A1"/>
<path d="M19.2959 39.6458C15.0563 39.6458 11.6188 36.2083 11.6188 31.9688C11.6188 27.7292 15.0563 24.2917 19.2959 24.2917C23.5354 24.2917 26.9729 27.7292 26.9729 31.9688C26.9729 36.2083 23.5354 39.6458 19.2959 39.6458ZM19.2959 27.7292C16.9584 27.7292 15.0563 29.6313 15.0563 31.9688C15.0563 34.3063 16.9584 36.2083 19.2959 36.2083C21.6334 36.2083 23.5354 34.3063 23.5354 31.9688C23.5354 29.6313 21.6563 27.7292 19.2959 27.7292Z" fill="#F2F7A1"/>
</svg>
